# xmcd
#
# Track frame offsets:
#	150
#	14516
#	42562
#	75185
#	101033
#	130422
#	162798
#	190520
#	223603
#	250598
#	258859
#
# Disc length: 3960 seconds
#
# Revision: 8
# Processed by: cddbd v1.5.2PL0 Copyright (c) Steve Scherf et al.
# Submitted via: audiograbber 1.83.01
#
DISCID=870f760b
DTITLE=John Grisham - Die Liste CD 03
DYEAR=2004
DGENRE=Hörbuch
TTITLE0=John Grisham - Kapitel 25
TTITLE1=John Grisham - Kapitel 26
TTITLE2=John Grisham - Kapitel 27
TTITLE3=John Grisham - Kapitel 28
TTITLE4=John Grisham - Kapitel 29
TTITLE5=John Grisham - Kapitel 30
TTITLE6=John Grisham - Kapitel 31
TTITLE7=John Grisham - Kapitel 32
TTITLE8=John Grisham - Kapitel 33
TTITLE9=John Grisham - Kapitel 34
TTITLE10=John Grisham - Kapitel 35
EXTD=YEAR: 2004
EXTT0=
EXTT1=
EXTT2=
EXTT3=
EXTT4=
EXTT5=
EXTT6=
EXTT7=
EXTT8=
EXTT9=
EXTT10=
PLAYORDER=
